<svg xmlns="http://www.w3.org/2000/svg" viewBox="0 0 84.59 95"><defs><style>.cls-1{fill:rgba(79, 70, 229, 1);}</style></defs><g id="Layer_2" data-name="Layer 2"><g id="Layer_1-2" data-name="Layer 1"><path class="cls-1" d="M75.75,58c-11.43,0-8.17,17.27-25,17.27H41.93a9.41,9.41,0,1,1,0-18.81h7.21a9,9,0,0,0,0-18.06H41.93a9.41,9.41,0,1,1,0-18.81h9.83c16.7,0,13.19,17.22,24.37,17.22a8.39,8.39,0,0,0,8.11-10.7A36.12,36.12,0,0,0,57.48,1.08,49.59,49.59,0,0,0,30.71,2.84,45.1,45.1,0,0,0,2.64,31,51.73,51.73,0,0,0,0,44.07H16.77a8.69,8.69,0,1,1,.38,7.64H.06A47.51,47.51,0,0,0,57.32,94,36.14,36.14,0,0,0,84.05,69.47,8.75,8.75,0,0,0,75.75,58Z"/></g></g></svg>